<svg width="27" height="31" viewBox="0 0 27 31" fill="none" xmlns="http://www.w3.org/2000/svg">
<path d="M7.24086 13.9715C8.8159 17.6195 11.3535 20.5973 14.4489 22.4664L16.8552 19.6305C17.1505 19.2824 17.588 19.1664 17.9708 19.3211C19.1959 19.798 20.5194 20.0559 21.8756 20.0559C22.4772 20.0559 22.9694 20.6359 22.9694 21.3449V25.8437C22.9694 26.5527 22.4772 27.1328 21.8756 27.1328C11.605 27.1328 3.28137 17.323 3.28137 5.21875C3.28137 4.50977 3.77357 3.92969 4.37515 3.92969H8.20338C8.80496 3.92969 9.29716 4.50977 9.29716 5.21875C9.29716 6.83008 9.51592 8.37695 9.92062 9.8207C10.0409 10.2719 9.95343 10.7746 9.64717 11.1355L7.24086 13.9715Z" fill="#E15544"/>
</svg>
