<svg width="129" height="81" viewBox="0 0 129 81" fill="none" xmlns="http://www.w3.org/2000/svg">
<mask id="path-1-outside-1_3945_2983" maskUnits="userSpaceOnUse" x="16" y="12" width="97" height="37" fill="black">
<rect fill="white" x="16" y="12" width="97" height="37"/>
<path d="M27.3007 44.8235V43.2353V41.6471H28.889H30.4772V43.2353V44.8235H28.889H27.3007ZM24.1243 41.6471V40.0588V38.4706H25.7125H27.3007V40.0588V41.6471H25.7125H24.1243ZM20.9478 38.4706V36.8824V35.2941H22.536H24.1243V36.8824V38.4706H22.536H20.9478ZM17.7713 35.2941V33.7059V32.1176H19.3596H20.9478V33.7059V35.2941H19.3596H17.7713ZM20.9478 32.1176V30.5294V28.9412H22.536H24.1243V30.5294V32.1176H22.536H20.9478ZM24.1243 28.9412V27.3529V25.7647H25.7125H27.3007V27.3529V28.9412H25.7125H24.1243ZM27.3007 25.7647V24.1765V22.5882H28.889H30.4772V24.1765V25.7647H28.889H27.3007ZM41.137 48V46.4118V44.8235V43.2353V41.6471V40.0588V38.4706V36.8824V35.2941V33.7059V32.1176V30.5294V28.9412V27.3529V25.7647V24.1765V22.5882V21V19.4118V17.8235V16.2353V14.6471V13.0588H42.7252H44.3135V14.6471V16.2353V17.8235V19.4118H45.9017H47.4899V21V22.5882H49.0782V24.1765V25.7647H50.6664V27.3529V28.9412H52.2546H53.8429V27.3529V25.7647H55.4311V24.1765V22.5882H57.0193V21V19.4118H58.6076H60.1958V17.8235V16.2353V14.6471V13.0588H61.7841H63.3723V14.6471V16.2353V17.8235V19.4118V21V22.5882V24.1765V25.7647V27.3529V28.9412V30.5294V32.1176V33.7059V35.2941V36.8824V38.4706V40.0588V41.6471V43.2353V44.8235V46.4118V48H61.7841H60.1958V46.4118V44.8235V43.2353V41.6471V40.0588V38.4706V36.8824V35.2941V33.7059V32.1176V30.5294V28.9412V27.3529V25.7647V24.1765V22.5882H58.6076V24.1765V25.7647H57.0193V27.3529V28.9412H55.4311V30.5294V32.1176H53.8429V33.7059V35.2941H52.2546H50.6664V33.7059V32.1176H49.0782V30.5294V28.9412H47.4899V27.3529V25.7647H45.9017V24.1765V22.5882H44.3135V24.1765V25.7647V27.3529V28.9412V30.5294V32.1176V33.7059V35.2941V36.8824V38.4706V40.0588V41.6471V43.2353V44.8235V46.4118V48H42.7252H41.137ZM75.5955 48V46.4118V44.8235H77.1837H78.772H80.3602H81.9484H83.5367H85.1249V46.4118V48H83.5367H81.9484H80.3602H78.772H77.1837H75.5955ZM72.419 44.8235V43.2353V41.6471V40.0588V38.4706V36.8824V35.2941H74.0073H75.5955V36.8824V38.4706V40.0588V41.6471V43.2353V44.8235H74.0073H72.419ZM85.1249 44.8235V43.2353V41.6471V40.0588V38.4706V36.8824V35.2941H86.7131H88.3014V36.8824V38.4706V40.0588V41.6471V43.2353V44.8235H86.7131H85.1249ZM81.9484 35.2941V33.7059V32.1176H83.5367H85.1249V33.7059V35.2941H83.5367H81.9484ZM78.772 32.1176V30.5294V28.9412H80.3602H81.9484V30.5294V32.1176H80.3602H78.772ZM75.5955 28.9412V27.3529V25.7647H77.1837H78.772V27.3529V28.9412H77.1837H75.5955ZM72.419 25.7647V24.1765V22.5882V21V19.4118V17.8235V16.2353H74.0073H75.5955V17.8235V19.4118V21V22.5882V24.1765V25.7647H74.0073H72.419ZM85.1249 22.5882V21V19.4118V17.8235V16.2353H86.7131H88.3014V17.8235V19.4118V21V22.5882H86.7131H85.1249ZM75.5955 16.2353V14.6471V13.0588H77.1837H78.772H80.3602H81.9484H83.5367H85.1249V14.6471V16.2353H83.5367H81.9484H80.3602H78.772H77.1837H75.5955ZM98.9612 44.8235V43.2353V41.6471H100.549H102.138V43.2353V44.8235H100.549H98.9612ZM102.138 41.6471V40.0588V38.4706H103.726H105.314V40.0588V41.6471H103.726H102.138ZM105.314 38.4706V36.8824V35.2941H106.902H108.491V36.8824V38.4706H106.902H105.314ZM108.491 35.2941V33.7059V32.1176H110.079H111.667V33.7059V35.2941H110.079H108.491ZM105.314 32.1176V30.5294V28.9412H106.902H108.491V30.5294V32.1176H106.902H105.314ZM102.138 28.9412V27.3529V25.7647H103.726H105.314V27.3529V28.9412H103.726H102.138ZM98.9612 25.7647V24.1765V22.5882H100.549H102.138V24.1765V25.7647H100.549H98.9612Z"/>
</mask>
<path d="M27.3007 44.8235V43.2353V41.6471H28.889H30.4772V43.2353V44.8235H28.889H27.3007ZM24.1243 41.6471V40.0588V38.4706H25.7125H27.3007V40.0588V41.6471H25.7125H24.1243ZM20.9478 38.4706V36.8824V35.2941H22.536H24.1243V36.8824V38.4706H22.536H20.9478ZM17.7713 35.2941V33.7059V32.1176H19.3596H20.9478V33.7059V35.2941H19.3596H17.7713ZM20.9478 32.1176V30.5294V28.9412H22.536H24.1243V30.5294V32.1176H22.536H20.9478ZM24.1243 28.9412V27.3529V25.7647H25.7125H27.3007V27.3529V28.9412H25.7125H24.1243ZM27.3007 25.7647V24.1765V22.5882H28.889H30.4772V24.1765V25.7647H28.889H27.3007ZM41.137 48V46.4118V44.8235V43.2353V41.6471V40.0588V38.4706V36.8824V35.2941V33.7059V32.1176V30.5294V28.9412V27.3529V25.7647V24.1765V22.5882V21V19.4118V17.8235V16.2353V14.6471V13.0588H42.7252H44.3135V14.6471V16.2353V17.8235V19.4118H45.9017H47.4899V21V22.5882H49.0782V24.1765V25.7647H50.6664V27.3529V28.9412H52.2546H53.8429V27.3529V25.7647H55.4311V24.1765V22.5882H57.0193V21V19.4118H58.6076H60.1958V17.8235V16.2353V14.6471V13.0588H61.7841H63.3723V14.6471V16.2353V17.8235V19.4118V21V22.5882V24.1765V25.7647V27.3529V28.9412V30.5294V32.1176V33.7059V35.2941V36.8824V38.4706V40.0588V41.6471V43.2353V44.8235V46.4118V48H61.7841H60.1958V46.4118V44.8235V43.2353V41.6471V40.0588V38.4706V36.8824V35.2941V33.7059V32.1176V30.5294V28.9412V27.3529V25.7647V24.1765V22.5882H58.6076V24.1765V25.7647H57.0193V27.3529V28.9412H55.4311V30.5294V32.1176H53.8429V33.7059V35.2941H52.2546H50.6664V33.7059V32.1176H49.0782V30.5294V28.9412H47.4899V27.3529V25.7647H45.9017V24.1765V22.5882H44.3135V24.1765V25.7647V27.3529V28.9412V30.5294V32.1176V33.7059V35.2941V36.8824V38.4706V40.0588V41.6471V43.2353V44.8235V46.4118V48H42.7252H41.137ZM75.5955 48V46.4118V44.8235H77.1837H78.772H80.3602H81.9484H83.5367H85.1249V46.4118V48H83.5367H81.9484H80.3602H78.772H77.1837H75.5955ZM72.419 44.8235V43.2353V41.6471V40.0588V38.4706V36.8824V35.2941H74.0073H75.5955V36.8824V38.4706V40.0588V41.6471V43.2353V44.8235H74.0073H72.419ZM85.1249 44.8235V43.2353V41.6471V40.0588V38.4706V36.8824V35.2941H86.7131H88.3014V36.8824V38.4706V40.0588V41.6471V43.2353V44.8235H86.7131H85.1249ZM81.9484 35.2941V33.7059V32.1176H83.5367H85.1249V33.7059V35.2941H83.5367H81.9484ZM78.772 32.1176V30.5294V28.9412H80.3602H81.9484V30.5294V32.1176H80.3602H78.772ZM75.5955 28.9412V27.3529V25.7647H77.1837H78.772V27.3529V28.9412H77.1837H75.5955ZM72.419 25.7647V24.1765V22.5882V21V19.4118V17.8235V16.2353H74.0073H75.5955V17.8235V19.4118V21V22.5882V24.1765V25.7647H74.0073H72.419ZM85.1249 22.5882V21V19.4118V17.8235V16.2353H86.7131H88.3014V17.8235V19.4118V21V22.5882H86.7131H85.1249ZM75.5955 16.2353V14.6471V13.0588H77.1837H78.772H80.3602H81.9484H83.5367H85.1249V14.6471V16.2353H83.5367H81.9484H80.3602H78.772H77.1837H75.5955ZM98.9612 44.8235V43.2353V41.6471H100.549H102.138V43.2353V44.8235H100.549H98.9612ZM102.138 41.6471V40.0588V38.4706H103.726H105.314V40.0588V41.6471H103.726H102.138ZM105.314 38.4706V36.8824V35.2941H106.902H108.491V36.8824V38.4706H106.902H105.314ZM108.491 35.2941V33.7059V32.1176H110.079H111.667V33.7059V35.2941H110.079H108.491ZM105.314 32.1176V30.5294V28.9412H106.902H108.491V30.5294V32.1176H106.902H105.314ZM102.138 28.9412V27.3529V25.7647H103.726H105.314V27.3529V28.9412H103.726H102.138ZM98.9612 25.7647V24.1765V22.5882H100.549H102.138V24.1765V25.7647H100.549H98.9612Z" fill="#E15544"/>
<path d="M27.3007 44.8235H26.3007V45.8235H27.3007V44.8235ZM27.3007 41.6471V40.6471H26.3007V41.6471H27.3007ZM30.4772 41.6471H31.4772V40.6471H30.4772V41.6471ZM30.4772 44.8235V45.8235H31.4772V44.8235H30.4772ZM24.1243 41.6471H23.1243V42.6471H24.1243V41.6471ZM24.1243 38.4706V37.4706H23.1243V38.4706H24.1243ZM27.3007 38.4706H28.3007V37.4706H27.3007V38.4706ZM27.3007 41.6471V42.6471H28.3007V41.6471H27.3007ZM20.9478 38.4706H19.9478V39.4706H20.9478V38.4706ZM20.9478 35.2941V34.2941H19.9478V35.2941H20.9478ZM24.1243 35.2941H25.1243V34.2941H24.1243V35.2941ZM24.1243 38.4706V39.4706H25.1243V38.4706H24.1243ZM17.7713 35.2941H16.7713V36.2941H17.7713V35.2941ZM17.7713 32.1176V31.1176H16.7713V32.1176H17.7713ZM20.9478 32.1176H21.9478V31.1176H20.9478V32.1176ZM20.9478 35.2941V36.2941H21.9478V35.2941H20.9478ZM20.9478 32.1176H19.9478V33.1176H20.9478V32.1176ZM20.9478 28.9412V27.9412H19.9478V28.9412H20.9478ZM24.1243 28.9412H25.1243V27.9412H24.1243V28.9412ZM24.1243 32.1176V33.1176H25.1243V32.1176H24.1243ZM24.1243 28.9412H23.1243V29.9412H24.1243V28.9412ZM24.1243 25.7647V24.7647H23.1243V25.7647H24.1243ZM27.3007 25.7647H28.3007V24.7647H27.3007V25.7647ZM27.3007 28.9412V29.9412H28.3007V28.9412H27.3007ZM27.3007 25.7647H26.3007V26.7647H27.3007V25.7647ZM27.3007 22.5882V21.5882H26.3007V22.5882H27.3007ZM30.4772 22.5882H31.4772V21.5882H30.4772V22.5882ZM30.4772 25.7647V26.7647H31.4772V25.7647H30.4772ZM28.3007 44.8235V43.2353H26.3007V44.8235H28.3007ZM28.3007 43.2353V41.6471H26.3007V43.2353H28.3007ZM27.3007 42.6471H28.889V40.6471H27.3007V42.6471ZM28.889 42.6471H30.4772V40.6471H28.889V42.6471ZM29.4772 41.6471V43.2353H31.4772V41.6471H29.4772ZM29.4772 43.2353V44.8235H31.4772V43.2353H29.4772ZM30.4772 43.8235H28.889V45.8235H30.4772V43.8235ZM28.889 43.8235H27.3007V45.8235H28.889V43.8235ZM25.1243 41.6471V40.0588H23.1243V41.6471H25.1243ZM25.1243 40.0588V38.4706H23.1243V40.0588H25.1243ZM24.1243 39.4706H25.7125V37.4706H24.1243V39.4706ZM25.7125 39.4706H27.3007V37.4706H25.7125V39.4706ZM26.3007 38.4706V40.0588H28.3007V38.4706H26.3007ZM26.3007 40.0588V41.6471H28.3007V40.0588H26.3007ZM27.3007 40.6471H25.7125V42.6471H27.3007V40.6471ZM25.7125 40.6471H24.1243V42.6471H25.7125V40.6471ZM21.9478 38.4706V36.8824H19.9478V38.4706H21.9478ZM21.9478 36.8824V35.2941H19.9478V36.8824H21.9478ZM20.9478 36.2941H22.536V34.2941H20.9478V36.2941ZM22.536 36.2941H24.1243V34.2941H22.536V36.2941ZM23.1243 35.2941V36.8824H25.1243V35.2941H23.1243ZM23.1243 36.8824V38.4706H25.1243V36.8824H23.1243ZM24.1243 37.4706H22.536V39.4706H24.1243V37.4706ZM22.536 37.4706H20.9478V39.4706H22.536V37.4706ZM18.7713 35.2941V33.7059H16.7713V35.2941H18.7713ZM18.7713 33.7059V32.1176H16.7713V33.7059H18.7713ZM17.7713 33.1176H19.3596V31.1176H17.7713V33.1176ZM19.3596 33.1176H20.9478V31.1176H19.3596V33.1176ZM19.9478 32.1176V33.7059H21.9478V32.1176H19.9478ZM19.9478 33.7059V35.2941H21.9478V33.7059H19.9478ZM20.9478 34.2941H19.3596V36.2941H20.9478V34.2941ZM19.3596 34.2941H17.7713V36.2941H19.3596V34.2941ZM21.9478 32.1176V30.5294H19.9478V32.1176H21.9478ZM21.9478 30.5294V28.9412H19.9478V30.5294H21.9478ZM20.9478 29.9412H22.536V27.9412H20.9478V29.9412ZM22.536 29.9412H24.1243V27.9412H22.536V29.9412ZM23.1243 28.9412V30.5294H25.1243V28.9412H23.1243ZM23.1243 30.5294V32.1176H25.1243V30.5294H23.1243ZM24.1243 31.1176H22.536V33.1176H24.1243V31.1176ZM22.536 31.1176H20.9478V33.1176H22.536V31.1176ZM25.1243 28.9412V27.3529H23.1243V28.9412H25.1243ZM25.1243 27.3529V25.7647H23.1243V27.3529H25.1243ZM24.1243 26.7647H25.7125V24.7647H24.1243V26.7647ZM25.7125 26.7647H27.3007V24.7647H25.7125V26.7647ZM26.3007 25.7647V27.3529H28.3007V25.7647H26.3007ZM26.3007 27.3529V28.9412H28.3007V27.3529H26.3007ZM27.3007 27.9412H25.7125V29.9412H27.3007V27.9412ZM25.7125 27.9412H24.1243V29.9412H25.7125V27.9412ZM28.3007 25.7647V24.1765H26.3007V25.7647H28.3007ZM28.3007 24.1765V22.5882H26.3007V24.1765H28.3007ZM27.3007 23.5882H28.889V21.5882H27.3007V23.5882ZM28.889 23.5882H30.4772V21.5882H28.889V23.5882ZM29.4772 22.5882V24.1765H31.4772V22.5882H29.4772ZM29.4772 24.1765V25.7647H31.4772V24.1765H29.4772ZM30.4772 24.7647H28.889V26.7647H30.4772V24.7647ZM28.889 24.7647H27.3007V26.7647H28.889V24.7647ZM41.137 48H40.137V49H41.137V48ZM41.137 13.0588V12.0588H40.137V13.0588H41.137ZM44.3135 13.0588H45.3135V12.0588H44.3135V13.0588ZM44.3135 19.4118H43.3135V20.4118H44.3135V19.4118ZM47.4899 19.4118H48.4899V18.4118H47.4899V19.4118ZM47.4899 22.5882H46.4899V23.5882H47.4899V22.5882ZM49.0782 22.5882H50.0782V21.5882H49.0782V22.5882ZM49.0782 25.7647H48.0782V26.7647H49.0782V25.7647ZM50.6664 25.7647H51.6664V24.7647H50.6664V25.7647ZM50.6664 28.9412H49.6664V29.9412H50.6664V28.9412ZM53.8429 28.9412V29.9412H54.8429V28.9412H53.8429ZM53.8429 25.7647V24.7647H52.8429V25.7647H53.8429ZM55.4311 25.7647V26.7647H56.4311V25.7647H55.4311ZM55.4311 22.5882V21.5882H54.4311V22.5882H55.4311ZM57.0193 22.5882V23.5882H58.0193V22.5882H57.0193ZM57.0193 19.4118V18.4118H56.0193V19.4118H57.0193ZM60.1958 19.4118V20.4118H61.1958V19.4118H60.1958ZM60.1958 13.0588V12.0588H59.1958V13.0588H60.1958ZM63.3723 13.0588H64.3723V12.0588H63.3723V13.0588ZM63.3723 48V49H64.3723V48H63.3723ZM60.1958 48H59.1958V49H60.1958V48ZM60.1958 22.5882H61.1958V21.5882H60.1958V22.5882ZM58.6076 22.5882V21.5882H57.6076V22.5882H58.6076ZM58.6076 25.7647V26.7647H59.6076V25.7647H58.6076ZM57.0193 25.7647V24.7647H56.0193V25.7647H57.0193ZM57.0193 28.9412V29.9412H58.0193V28.9412H57.0193ZM55.4311 28.9412V27.9412H54.4311V28.9412H55.4311ZM55.4311 32.1176V33.1176H56.4311V32.1176H55.4311ZM53.8429 32.1176V31.1176H52.8429V32.1176H53.8429ZM53.8429 35.2941V36.2941H54.8429V35.2941H53.8429ZM50.6664 35.2941H49.6664V36.2941H50.6664V35.2941ZM50.6664 32.1176H51.6664V31.1176H50.6664V32.1176ZM49.0782 32.1176H48.0782V33.1176H49.0782V32.1176ZM49.0782 28.9412H50.0782V27.9412H49.0782V28.9412ZM47.4899 28.9412H46.4899V29.9412H47.4899V28.9412ZM47.4899 25.7647H48.4899V24.7647H47.4899V25.7647ZM45.9017 25.7647H44.9017V26.7647H45.9017V25.7647ZM45.9017 22.5882H46.9017V21.5882H45.9017V22.5882ZM44.3135 22.5882V21.5882H43.3135V22.5882H44.3135ZM44.3135 48V49H45.3135V48H44.3135ZM42.137 48V46.4118H40.137V48H42.137ZM42.137 46.4118V44.8235H40.137V46.4118H42.137ZM42.137 44.8235V43.2353H40.137V44.8235H42.137ZM42.137 43.2353V41.6471H40.137V43.2353H42.137ZM42.137 41.6471V40.0588H40.137V41.6471H42.137ZM42.137 40.0588V38.4706H40.137V40.0588H42.137ZM42.137 38.4706V36.8824H40.137V38.4706H42.137ZM42.137 36.8824V35.2941H40.137V36.8824H42.137ZM42.137 35.2941V33.7059H40.137V35.2941H42.137ZM42.137 33.7059V32.1176H40.137V33.7059H42.137ZM42.137 32.1176V30.5294H40.137V32.1176H42.137ZM42.137 30.5294V28.9412H40.137V30.5294H42.137ZM42.137 28.9412V27.3529H40.137V28.9412H42.137ZM42.137 27.3529V25.7647H40.137V27.3529H42.137ZM42.137 25.7647V24.1765H40.137V25.7647H42.137ZM42.137 24.1765V22.5882H40.137V24.1765H42.137ZM42.137 22.5882V21H40.137V22.5882H42.137ZM42.137 21V19.4118H40.137V21H42.137ZM42.137 19.4118V17.8235H40.137V19.4118H42.137ZM42.137 17.8235V16.2353H40.137V17.8235H42.137ZM42.137 16.2353V14.6471H40.137V16.2353H42.137ZM42.137 14.6471V13.0588H40.137V14.6471H42.137ZM41.137 14.0588H42.7252V12.0588H41.137V14.0588ZM42.7252 14.0588H44.3135V12.0588H42.7252V14.0588ZM43.3135 13.0588V14.6471H45.3135V13.0588H43.3135ZM43.3135 14.6471V16.2353H45.3135V14.6471H43.3135ZM43.3135 16.2353V17.8235H45.3135V16.2353H43.3135ZM43.3135 17.8235V19.4118H45.3135V17.8235H43.3135ZM44.3135 20.4118H45.9017V18.4118H44.3135V20.4118ZM45.9017 20.4118H47.4899V18.4118H45.9017V20.4118ZM46.4899 19.4118V21H48.4899V19.4118H46.4899ZM46.4899 21V22.5882H48.4899V21H46.4899ZM47.4899 23.5882H49.0782V21.5882H47.4899V23.5882ZM48.0782 22.5882V24.1765H50.0782V22.5882H48.0782ZM48.0782 24.1765V25.7647H50.0782V24.1765H48.0782ZM49.0782 26.7647H50.6664V24.7647H49.0782V26.7647ZM49.6664 25.7647V27.3529H51.6664V25.7647H49.6664ZM49.6664 27.3529V28.9412H51.6664V27.3529H49.6664ZM50.6664 29.9412H52.2546V27.9412H50.6664V29.9412ZM52.2546 29.9412H53.8429V27.9412H52.2546V29.9412ZM54.8429 28.9412V27.3529H52.8429V28.9412H54.8429ZM54.8429 27.3529V25.7647H52.8429V27.3529H54.8429ZM53.8429 26.7647H55.4311V24.7647H53.8429V26.7647ZM56.4311 25.7647V24.1765H54.4311V25.7647H56.4311ZM56.4311 24.1765V22.5882H54.4311V24.1765H56.4311ZM55.4311 23.5882H57.0193V21.5882H55.4311V23.5882ZM58.0193 22.5882V21H56.0193V22.5882H58.0193ZM58.0193 21V19.4118H56.0193V21H58.0193ZM57.0193 20.4118H58.6076V18.4118H57.0193V20.4118ZM58.6076 20.4118H60.1958V18.4118H58.6076V20.4118ZM61.1958 19.4118V17.8235H59.1958V19.4118H61.1958ZM61.1958 17.8235V16.2353H59.1958V17.8235H61.1958ZM61.1958 16.2353V14.6471H59.1958V16.2353H61.1958ZM61.1958 14.6471V13.0588H59.1958V14.6471H61.1958ZM60.1958 14.0588H61.7841V12.0588H60.1958V14.0588ZM61.7841 14.0588H63.3723V12.0588H61.7841V14.0588ZM62.3723 13.0588V14.6471H64.3723V13.0588H62.3723ZM62.3723 14.6471V16.2353H64.3723V14.6471H62.3723ZM62.3723 16.2353V17.8235H64.3723V16.2353H62.3723ZM62.3723 17.8235V19.4118H64.3723V17.8235H62.3723ZM62.3723 19.4118V21H64.3723V19.4118H62.3723ZM62.3723 21V22.5882H64.3723V21H62.3723ZM62.3723 22.5882V24.1765H64.3723V22.5882H62.3723ZM62.3723 24.1765V25.7647H64.3723V24.1765H62.3723ZM62.3723 25.7647V27.3529H64.3723V25.7647H62.3723ZM62.3723 27.3529V28.9412H64.3723V27.3529H62.3723ZM62.3723 28.9412V30.5294H64.3723V28.9412H62.3723ZM62.3723 30.5294V32.1176H64.3723V30.5294H62.3723ZM62.3723 32.1176V33.7059H64.3723V32.1176H62.3723ZM62.3723 33.7059V35.2941H64.3723V33.7059H62.3723ZM62.3723 35.2941V36.8824H64.3723V35.2941H62.3723ZM62.3723 36.8824V38.4706H64.3723V36.8824H62.3723ZM62.3723 38.4706V40.0588H64.3723V38.4706H62.3723ZM62.3723 40.0588V41.6471H64.3723V40.0588H62.3723ZM62.3723 41.6471V43.2353H64.3723V41.6471H62.3723ZM62.3723 43.2353V44.8235H64.3723V43.2353H62.3723ZM62.3723 44.8235V46.4118H64.3723V44.8235H62.3723ZM62.3723 46.4118V48H64.3723V46.4118H62.3723ZM63.3723 47H61.7841V49H63.3723V47ZM61.7841 47H60.1958V49H61.7841V47ZM61.1958 48V46.4118H59.1958V48H61.1958ZM61.1958 46.4118V44.8235H59.1958V46.4118H61.1958ZM61.1958 44.8235V43.2353H59.1958V44.8235H61.1958ZM61.1958 43.2353V41.6471H59.1958V43.2353H61.1958ZM61.1958 41.6471V40.0588H59.1958V41.6471H61.1958ZM61.1958 40.0588V38.4706H59.1958V40.0588H61.1958ZM61.1958 38.4706V36.8824H59.1958V38.4706H61.1958ZM61.1958 36.8824V35.2941H59.1958V36.8824H61.1958ZM61.1958 35.2941V33.7059H59.1958V35.2941H61.1958ZM61.1958 33.7059V32.1176H59.1958V33.7059H61.1958ZM61.1958 32.1176V30.5294H59.1958V32.1176H61.1958ZM61.1958 30.5294V28.9412H59.1958V30.5294H61.1958ZM61.1958 28.9412V27.3529H59.1958V28.9412H61.1958ZM61.1958 27.3529V25.7647H59.1958V27.3529H61.1958ZM61.1958 25.7647V24.1765H59.1958V25.7647H61.1958ZM61.1958 24.1765V22.5882H59.1958V24.1765H61.1958ZM60.1958 21.5882H58.6076V23.5882H60.1958V21.5882ZM57.6076 22.5882V24.1765H59.6076V22.5882H57.6076ZM57.6076 24.1765V25.7647H59.6076V24.1765H57.6076ZM58.6076 24.7647H57.0193V26.7647H58.6076V24.7647ZM56.0193 25.7647V27.3529H58.0193V25.7647H56.0193ZM56.0193 27.3529V28.9412H58.0193V27.3529H56.0193ZM57.0193 27.9412H55.4311V29.9412H57.0193V27.9412ZM54.4311 28.9412V30.5294H56.4311V28.9412H54.4311ZM54.4311 30.5294V32.1176H56.4311V30.5294H54.4311ZM55.4311 31.1176H53.8429V33.1176H55.4311V31.1176ZM52.8429 32.1176V33.7059H54.8429V32.1176H52.8429ZM52.8429 33.7059V35.2941H54.8429V33.7059H52.8429ZM53.8429 34.2941H52.2546V36.2941H53.8429V34.2941ZM52.2546 34.2941H50.6664V36.2941H52.2546V34.2941ZM51.6664 35.2941V33.7059H49.6664V35.2941H51.6664ZM51.6664 33.7059V32.1176H49.6664V33.7059H51.6664ZM50.6664 31.1176H49.0782V33.1176H50.6664V31.1176ZM50.0782 32.1176V30.5294H48.0782V32.1176H50.0782ZM50.0782 30.5294V28.9412H48.0782V30.5294H50.0782ZM49.0782 27.9412H47.4899V29.9412H49.0782V27.9412ZM48.4899 28.9412V27.3529H46.4899V28.9412H48.4899ZM48.4899 27.3529V25.7647H46.4899V27.3529H48.4899ZM47.4899 24.7647H45.9017V26.7647H47.4899V24.7647ZM46.9017 25.7647V24.1765H44.9017V25.7647H46.9017ZM46.9017 24.1765V22.5882H44.9017V24.1765H46.9017ZM45.9017 21.5882H44.3135V23.5882H45.9017V21.5882ZM43.3135 22.5882V24.1765H45.3135V22.5882H43.3135ZM43.3135 24.1765V25.7647H45.3135V24.1765H43.3135ZM43.3135 25.7647V27.3529H45.3135V25.7647H43.3135ZM43.3135 27.3529V28.9412H45.3135V27.3529H43.3135ZM43.3135 28.9412V30.5294H45.3135V28.9412H43.3135ZM43.3135 30.5294V32.1176H45.3135V30.5294H43.3135ZM43.3135 32.1176V33.7059H45.3135V32.1176H43.3135ZM43.3135 33.7059V35.2941H45.3135V33.7059H43.3135ZM43.3135 35.2941V36.8824H45.3135V35.2941H43.3135ZM43.3135 36.8824V38.4706H45.3135V36.8824H43.3135ZM43.3135 38.4706V40.0588H45.3135V38.4706H43.3135ZM43.3135 40.0588V41.6471H45.3135V40.0588H43.3135ZM43.3135 41.6471V43.2353H45.3135V41.6471H43.3135ZM43.3135 43.2353V44.8235H45.3135V43.2353H43.3135ZM43.3135 44.8235V46.4118H45.3135V44.8235H43.3135ZM43.3135 46.4118V48H45.3135V46.4118H43.3135ZM44.3135 47H42.7252V49H44.3135V47ZM42.7252 47H41.137V49H42.7252V47ZM75.5955 48H74.5955V49H75.5955V48ZM75.5955 44.8235V43.8235H74.5955V44.8235H75.5955ZM85.1249 44.8235H86.1249V43.8235H85.1249V44.8235ZM85.1249 48V49H86.1249V48H85.1249ZM72.419 44.8235H71.419V45.8235H72.419V44.8235ZM72.419 35.2941V34.2941H71.419V35.2941H72.419ZM75.5955 35.2941H76.5955V34.2941H75.5955V35.2941ZM75.5955 44.8235V45.8235H76.5955V44.8235H75.5955ZM85.1249 44.8235H84.1249V45.8235H85.1249V44.8235ZM85.1249 35.2941V34.2941H84.1249V35.2941H85.1249ZM88.3014 35.2941H89.3014V34.2941H88.3014V35.2941ZM88.3014 44.8235V45.8235H89.3014V44.8235H88.3014ZM81.9484 35.2941H80.9484V36.2941H81.9484V35.2941ZM81.9484 32.1176V31.1176H80.9484V32.1176H81.9484ZM85.1249 32.1176H86.1249V31.1176H85.1249V32.1176ZM85.1249 35.2941V36.2941H86.1249V35.2941H85.1249ZM78.772 32.1176H77.772V33.1176H78.772V32.1176ZM78.772 28.9412V27.9412H77.772V28.9412H78.772ZM81.9484 28.9412H82.9484V27.9412H81.9484V28.9412ZM81.9484 32.1176V33.1176H82.9484V32.1176H81.9484ZM75.5955 28.9412H74.5955V29.9412H75.5955V28.9412ZM75.5955 25.7647V24.7647H74.5955V25.7647H75.5955ZM78.772 25.7647H79.772V24.7647H78.772V25.7647ZM78.772 28.9412V29.9412H79.772V28.9412H78.772ZM72.419 25.7647H71.419V26.7647H72.419V25.7647ZM72.419 16.2353V15.2353H71.419V16.2353H72.419ZM75.5955 16.2353H76.5955V15.2353H75.5955V16.2353ZM75.5955 25.7647V26.7647H76.5955V25.7647H75.5955ZM85.1249 22.5882H84.1249V23.5882H85.1249V22.5882ZM85.1249 16.2353V15.2353H84.1249V16.2353H85.1249ZM88.3014 16.2353H89.3014V15.2353H88.3014V16.2353ZM88.3014 22.5882V23.5882H89.3014V22.5882H88.3014ZM75.5955 16.2353H74.5955V17.2353H75.5955V16.2353ZM75.5955 13.0588V12.0588H74.5955V13.0588H75.5955ZM85.1249 13.0588H86.1249V12.0588H85.1249V13.0588ZM85.1249 16.2353V17.2353H86.1249V16.2353H85.1249ZM76.5955 48V46.4118H74.5955V48H76.5955ZM76.5955 46.4118V44.8235H74.5955V46.4118H76.5955ZM75.5955 45.8235H77.1837V43.8235H75.5955V45.8235ZM77.1837 45.8235H78.772V43.8235H77.1837V45.8235ZM78.772 45.8235H80.3602V43.8235H78.772V45.8235ZM80.3602 45.8235H81.9484V43.8235H80.3602V45.8235ZM81.9484 45.8235H83.5367V43.8235H81.9484V45.8235ZM83.5367 45.8235H85.1249V43.8235H83.5367V45.8235ZM84.1249 44.8235V46.4118H86.1249V44.8235H84.1249ZM84.1249 46.4118V48H86.1249V46.4118H84.1249ZM85.1249 47H83.5367V49H85.1249V47ZM83.5367 47H81.9484V49H83.5367V47ZM81.9484 47H80.3602V49H81.9484V47ZM80.3602 47H78.772V49H80.3602V47ZM78.772 47H77.1837V49H78.772V47ZM77.1837 47H75.5955V49H77.1837V47ZM73.419 44.8235V43.2353H71.419V44.8235H73.419ZM73.419 43.2353V41.6471H71.419V43.2353H73.419ZM73.419 41.6471V40.0588H71.419V41.6471H73.419ZM73.419 40.0588V38.4706H71.419V40.0588H73.419ZM73.419 38.4706V36.8824H71.419V38.4706H73.419ZM73.419 36.8824V35.2941H71.419V36.8824H73.419ZM72.419 36.2941H74.0073V34.2941H72.419V36.2941ZM74.0073 36.2941H75.5955V34.2941H74.0073V36.2941ZM74.5955 35.2941V36.8824H76.5955V35.2941H74.5955ZM74.5955 36.8824V38.4706H76.5955V36.8824H74.5955ZM74.5955 38.4706V40.0588H76.5955V38.4706H74.5955ZM74.5955 40.0588V41.6471H76.5955V40.0588H74.5955ZM74.5955 41.6471V43.2353H76.5955V41.6471H74.5955ZM74.5955 43.2353V44.8235H76.5955V43.2353H74.5955ZM75.5955 43.8235H74.0073V45.8235H75.5955V43.8235ZM74.0073 43.8235H72.419V45.8235H74.0073V43.8235ZM86.1249 44.8235V43.2353H84.1249V44.8235H86.1249ZM86.1249 43.2353V41.6471H84.1249V43.2353H86.1249ZM86.1249 41.6471V40.0588H84.1249V41.6471H86.1249ZM86.1249 40.0588V38.4706H84.1249V40.0588H86.1249ZM86.1249 38.4706V36.8824H84.1249V38.4706H86.1249ZM86.1249 36.8824V35.2941H84.1249V36.8824H86.1249ZM85.1249 36.2941H86.7131V34.2941H85.1249V36.2941ZM86.7131 36.2941H88.3014V34.2941H86.7131V36.2941ZM87.3014 35.2941V36.8824H89.3014V35.2941H87.3014ZM87.3014 36.8824V38.4706H89.3014V36.8824H87.3014ZM87.3014 38.4706V40.0588H89.3014V38.4706H87.3014ZM87.3014 40.0588V41.6471H89.3014V40.0588H87.3014ZM87.3014 41.6471V43.2353H89.3014V41.6471H87.3014ZM87.3014 43.2353V44.8235H89.3014V43.2353H87.3014ZM88.3014 43.8235H86.7131V45.8235H88.3014V43.8235ZM86.7131 43.8235H85.1249V45.8235H86.7131V43.8235ZM82.9484 35.2941V33.7059H80.9484V35.2941H82.9484ZM82.9484 33.7059V32.1176H80.9484V33.7059H82.9484ZM81.9484 33.1176H83.5367V31.1176H81.9484V33.1176ZM83.5367 33.1176H85.1249V31.1176H83.5367V33.1176ZM84.1249 32.1176V33.7059H86.1249V32.1176H84.1249ZM84.1249 33.7059V35.2941H86.1249V33.7059H84.1249ZM85.1249 34.2941H83.5367V36.2941H85.1249V34.2941ZM83.5367 34.2941H81.9484V36.2941H83.5367V34.2941ZM79.772 32.1176V30.5294H77.772V32.1176H79.772ZM79.772 30.5294V28.9412H77.772V30.5294H79.772ZM78.772 29.9412H80.3602V27.9412H78.772V29.9412ZM80.3602 29.9412H81.9484V27.9412H80.3602V29.9412ZM80.9484 28.9412V30.5294H82.9484V28.9412H80.9484ZM80.9484 30.5294V32.1176H82.9484V30.5294H80.9484ZM81.9484 31.1176H80.3602V33.1176H81.9484V31.1176ZM80.3602 31.1176H78.772V33.1176H80.3602V31.1176ZM76.5955 28.9412V27.3529H74.5955V28.9412H76.5955ZM76.5955 27.3529V25.7647H74.5955V27.3529H76.5955ZM75.5955 26.7647H77.1837V24.7647H75.5955V26.7647ZM77.1837 26.7647H78.772V24.7647H77.1837V26.7647ZM77.772 25.7647V27.3529H79.772V25.7647H77.772ZM77.772 27.3529V28.9412H79.772V27.3529H77.772ZM78.772 27.9412H77.1837V29.9412H78.772V27.9412ZM77.1837 27.9412H75.5955V29.9412H77.1837V27.9412ZM73.419 25.7647V24.1765H71.419V25.7647H73.419ZM73.419 24.1765V22.5882H71.419V24.1765H73.419ZM73.419 22.5882V21H71.419V22.5882H73.419ZM73.419 21V19.4118H71.419V21H73.419ZM73.419 19.4118V17.8235H71.419V19.4118H73.419ZM73.419 17.8235V16.2353H71.419V17.8235H73.419ZM72.419 17.2353H74.0073V15.2353H72.419V17.2353ZM74.0073 17.2353H75.5955V15.2353H74.0073V17.2353ZM74.5955 16.2353V17.8235H76.5955V16.2353H74.5955ZM74.5955 17.8235V19.4118H76.5955V17.8235H74.5955ZM74.5955 19.4118V21H76.5955V19.4118H74.5955ZM74.5955 21V22.5882H76.5955V21H74.5955ZM74.5955 22.5882V24.1765H76.5955V22.5882H74.5955ZM74.5955 24.1765V25.7647H76.5955V24.1765H74.5955ZM75.5955 24.7647H74.0073V26.7647H75.5955V24.7647ZM74.0073 24.7647H72.419V26.7647H74.0073V24.7647ZM86.1249 22.5882V21H84.1249V22.5882H86.1249ZM86.1249 21V19.4118H84.1249V21H86.1249ZM86.1249 19.4118V17.8235H84.1249V19.4118H86.1249ZM86.1249 17.8235V16.2353H84.1249V17.8235H86.1249ZM85.1249 17.2353H86.7131V15.2353H85.1249V17.2353ZM86.7131 17.2353H88.3014V15.2353H86.7131V17.2353ZM87.3014 16.2353V17.8235H89.3014V16.2353H87.3014ZM87.3014 17.8235V19.4118H89.3014V17.8235H87.3014ZM87.3014 19.4118V21H89.3014V19.4118H87.3014ZM87.3014 21V22.5882H89.3014V21H87.3014ZM88.3014 21.5882H86.7131V23.5882H88.3014V21.5882ZM86.7131 21.5882H85.1249V23.5882H86.7131V21.5882ZM76.5955 16.2353V14.6471H74.5955V16.2353H76.5955ZM76.5955 14.6471V13.0588H74.5955V14.6471H76.5955ZM75.5955 14.0588H77.1837V12.0588H75.5955V14.0588ZM77.1837 14.0588H78.772V12.0588H77.1837V14.0588ZM78.772 14.0588H80.3602V12.0588H78.772V14.0588ZM80.3602 14.0588H81.9484V12.0588H80.3602V14.0588ZM81.9484 14.0588H83.5367V12.0588H81.9484V14.0588ZM83.5367 14.0588H85.1249V12.0588H83.5367V14.0588ZM84.1249 13.0588V14.6471H86.1249V13.0588H84.1249ZM84.1249 14.6471V16.2353H86.1249V14.6471H84.1249ZM85.1249 15.2353H83.5367V17.2353H85.1249V15.2353ZM83.5367 15.2353H81.9484V17.2353H83.5367V15.2353ZM81.9484 15.2353H80.3602V17.2353H81.9484V15.2353ZM80.3602 15.2353H78.772V17.2353H80.3602V15.2353ZM78.772 15.2353H77.1837V17.2353H78.772V15.2353ZM77.1837 15.2353H75.5955V17.2353H77.1837V15.2353ZM98.9612 44.8235H97.9612V45.8235H98.9612V44.8235ZM98.9612 41.6471V40.6471H97.9612V41.6471H98.9612ZM102.138 41.6471H103.138V40.6471H102.138V41.6471ZM102.138 44.8235V45.8235H103.138V44.8235H102.138ZM102.138 41.6471H101.138V42.6471H102.138V41.6471ZM102.138 38.4706V37.4706H101.138V38.4706H102.138ZM105.314 38.4706H106.314V37.4706H105.314V38.4706ZM105.314 41.6471V42.6471H106.314V41.6471H105.314ZM105.314 38.4706H104.314V39.4706H105.314V38.4706ZM105.314 35.2941V34.2941H104.314V35.2941H105.314ZM108.491 35.2941H109.491V34.2941H108.491V35.2941ZM108.491 38.4706V39.4706H109.491V38.4706H108.491ZM108.491 35.2941H107.491V36.2941H108.491V35.2941ZM108.491 32.1176V31.1176H107.491V32.1176H108.491ZM111.667 32.1176H112.667V31.1176H111.667V32.1176ZM111.667 35.2941V36.2941H112.667V35.2941H111.667ZM105.314 32.1176H104.314V33.1176H105.314V32.1176ZM105.314 28.9412V27.9412H104.314V28.9412H105.314ZM108.491 28.9412H109.491V27.9412H108.491V28.9412ZM108.491 32.1176V33.1176H109.491V32.1176H108.491ZM102.138 28.9412H101.138V29.9412H102.138V28.9412ZM102.138 25.7647V24.7647H101.138V25.7647H102.138ZM105.314 25.7647H106.314V24.7647H105.314V25.7647ZM105.314 28.9412V29.9412H106.314V28.9412H105.314ZM98.9612 25.7647H97.9612V26.7647H98.9612V25.7647ZM98.9612 22.5882V21.5882H97.9612V22.5882H98.9612ZM102.138 22.5882H103.138V21.5882H102.138V22.5882ZM102.138 25.7647V26.7647H103.138V25.7647H102.138ZM99.9612 44.8235V43.2353H97.9612V44.8235H99.9612ZM99.9612 43.2353V41.6471H97.9612V43.2353H99.9612ZM98.9612 42.6471H100.549V40.6471H98.9612V42.6471ZM100.549 42.6471H102.138V40.6471H100.549V42.6471ZM101.138 41.6471V43.2353H103.138V41.6471H101.138ZM101.138 43.2353V44.8235H103.138V43.2353H101.138ZM102.138 43.8235H100.549V45.8235H102.138V43.8235ZM100.549 43.8235H98.9612V45.8235H100.549V43.8235ZM103.138 41.6471V40.0588H101.138V41.6471H103.138ZM103.138 40.0588V38.4706H101.138V40.0588H103.138ZM102.138 39.4706H103.726V37.4706H102.138V39.4706ZM103.726 39.4706H105.314V37.4706H103.726V39.4706ZM104.314 38.4706V40.0588H106.314V38.4706H104.314ZM104.314 40.0588V41.6471H106.314V40.0588H104.314ZM105.314 40.6471H103.726V42.6471H105.314V40.6471ZM103.726 40.6471H102.138V42.6471H103.726V40.6471ZM106.314 38.4706V36.8824H104.314V38.4706H106.314ZM106.314 36.8824V35.2941H104.314V36.8824H106.314ZM105.314 36.2941H106.902V34.2941H105.314V36.2941ZM106.902 36.2941H108.491V34.2941H106.902V36.2941ZM107.491 35.2941V36.8824H109.491V35.2941H107.491ZM107.491 36.8824V38.4706H109.491V36.8824H107.491ZM108.491 37.4706H106.902V39.4706H108.491V37.4706ZM106.902 37.4706H105.314V39.4706H106.902V37.4706ZM109.491 35.2941V33.7059H107.491V35.2941H109.491ZM109.491 33.7059V32.1176H107.491V33.7059H109.491ZM108.491 33.1176H110.079V31.1176H108.491V33.1176ZM110.079 33.1176H111.667V31.1176H110.079V33.1176ZM110.667 32.1176V33.7059H112.667V32.1176H110.667ZM110.667 33.7059V35.2941H112.667V33.7059H110.667ZM111.667 34.2941H110.079V36.2941H111.667V34.2941ZM110.079 34.2941H108.491V36.2941H110.079V34.2941ZM106.314 32.1176V30.5294H104.314V32.1176H106.314ZM106.314 30.5294V28.9412H104.314V30.5294H106.314ZM105.314 29.9412H106.902V27.9412H105.314V29.9412ZM106.902 29.9412H108.491V27.9412H106.902V29.9412ZM107.491 28.9412V30.5294H109.491V28.9412H107.491ZM107.491 30.5294V32.1176H109.491V30.5294H107.491ZM108.491 31.1176H106.902V33.1176H108.491V31.1176ZM106.902 31.1176H105.314V33.1176H106.902V31.1176ZM103.138 28.9412V27.3529H101.138V28.9412H103.138ZM103.138 27.3529V25.7647H101.138V27.3529H103.138ZM102.138 26.7647H103.726V24.7647H102.138V26.7647ZM103.726 26.7647H105.314V24.7647H103.726V26.7647ZM104.314 25.7647V27.3529H106.314V25.7647H104.314ZM104.314 27.3529V28.9412H106.314V27.3529H104.314ZM105.314 27.9412H103.726V29.9412H105.314V27.9412ZM103.726 27.9412H102.138V29.9412H103.726V27.9412ZM99.9612 25.7647V24.1765H97.9612V25.7647H99.9612ZM99.9612 24.1765V22.5882H97.9612V24.1765H99.9612ZM98.9612 23.5882H100.549V21.5882H98.9612V23.5882ZM100.549 23.5882H102.138V21.5882H100.549V23.5882ZM101.138 22.5882V24.1765H103.138V22.5882H101.138ZM101.138 24.1765V25.7647H103.138V24.1765H101.138ZM102.138 24.7647H100.549V26.7647H102.138V24.7647ZM100.549 24.7647H98.9612V26.7647H100.549V24.7647Z" fill="#E15544" mask="url(#path-1-outside-1_3945_2983)"/>
<path d="M2.50195 74V68.709H0.802734V67.6602H2.50195V67.2734C2.50195 66.8594 2.56445 66.4961 2.68945 66.1836C2.81836 65.8672 3 65.6016 3.23438 65.3867C3.46875 65.1758 3.75 65.0156 4.07812 64.9062C4.41016 64.7969 4.78125 64.7422 5.19141 64.7422C5.33594 64.7422 5.47656 64.75 5.61328 64.7656C5.75391 64.7773 5.89062 64.793 6.02344 64.8125C6.13281 64.8281 6.24414 64.8477 6.35742 64.8711C6.4707 64.8906 6.58594 64.9121 6.70312 64.9355L6.5918 66.0547C6.43555 66.0117 6.25781 65.9746 6.05859 65.9434C5.86328 65.9121 5.64062 65.8965 5.39062 65.8965C5.12891 65.8965 4.90234 65.9277 4.71094 65.9902C4.52344 66.0527 4.36914 66.1445 4.24805 66.2656C4.13477 66.3789 4.04883 66.5195 3.99023 66.6875C3.93555 66.8555 3.9082 67.0508 3.9082 67.2734V67.6602H6.25781V68.709H3.9082V74H2.50195ZM12.498 67.543C12.7246 67.543 12.9434 67.5586 13.1543 67.5898C13.3691 67.6211 13.5371 67.6582 13.6582 67.7012L13.459 69.084C13.2441 69.0371 13.0312 69.002 12.8203 68.9785C12.6133 68.9551 12.4062 68.9434 12.1992 68.9434C11.9648 68.9434 11.7539 68.9668 11.5664 69.0137C11.3789 69.0605 11.2129 69.1328 11.0684 69.2305C10.9121 69.3242 10.7793 69.4434 10.6699 69.5879C10.5605 69.7324 10.4688 69.8984 10.3945 70.0859V74H8.99414V67.6602H10.3066L10.3652 68.5391L10.3711 68.6855C10.6289 68.3301 10.9375 68.0508 11.2969 67.8477C11.6602 67.6445 12.0605 67.543 12.498 67.543ZM15.0645 70.7715C15.0645 70.3105 15.1309 69.8848 15.2637 69.4941C15.3965 69.0996 15.5898 68.7578 15.8438 68.4688C16.0938 68.1797 16.4004 67.9531 16.7637 67.7891C17.127 67.625 17.541 67.543 18.0059 67.543C18.4707 67.543 18.8848 67.625 19.248 67.7891C19.6152 67.9531 19.9258 68.1797 20.1797 68.4688C20.4297 68.7578 20.6211 69.0996 20.7539 69.4941C20.8867 69.8848 20.9531 70.3105 20.9531 70.7715V70.8945C20.9531 71.3594 20.8867 71.7871 20.7539 72.1777C20.6211 72.5684 20.4297 72.9082 20.1797 73.1973C19.9297 73.4863 19.6211 73.7129 19.2539 73.877C18.8906 74.041 18.4785 74.123 18.0176 74.123C17.5527 74.123 17.1367 74.041 16.7695 73.877C16.4023 73.7129 16.0938 73.4863 15.8438 73.1973C15.5898 72.9082 15.3965 72.5684 15.2637 72.1777C15.1309 71.7871 15.0645 71.3594 15.0645 70.8945V70.7715ZM16.4648 70.8945C16.4648 71.1797 16.4941 71.4492 16.5527 71.7031C16.6152 71.957 16.7109 72.1797 16.8398 72.3711C16.9648 72.5625 17.125 72.7148 17.3203 72.8281C17.5156 72.9375 17.748 72.9922 18.0176 72.9922C18.2793 72.9922 18.5078 72.9375 18.7031 72.8281C18.8984 72.7148 19.0586 72.5625 19.1836 72.3711C19.3086 72.1797 19.4004 71.957 19.459 71.7031C19.5215 71.4492 19.5527 71.1797 19.5527 70.8945V70.7715C19.5527 70.4941 19.5215 70.2285 19.459 69.9746C19.3965 69.7207 19.3047 69.498 19.1836 69.3066C19.0547 69.1152 18.8926 68.9629 18.6973 68.8496C18.5059 68.7363 18.2754 68.6797 18.0059 68.6797C17.7402 68.6797 17.5098 68.7363 17.3145 68.8496C17.123 68.9629 16.9648 69.1152 16.8398 69.3066C16.7109 69.498 16.6152 69.7207 16.5527 69.9746C16.4941 70.2285 16.4648 70.4941 16.4648 70.7715V70.8945ZM22.5293 74V67.6602H23.7949L23.8828 68.5625C23.9688 68.4414 24.0625 68.3301 24.1641 68.2285C24.2695 68.123 24.3809 68.0293 24.498 67.9473C24.6855 67.8184 24.8906 67.7188 25.1133 67.6484C25.3359 67.5781 25.5703 67.543 25.8164 67.543C26.1406 67.543 26.4375 67.5898 26.707 67.6836C26.9766 67.7773 27.207 67.9258 27.3984 68.1289C27.5898 68.332 27.7383 68.5918 27.8438 68.9082C27.9492 69.2207 28.002 69.5996 28.002 70.0449V74H26.6016V70.0684C26.6016 69.8066 26.5723 69.5879 26.5137 69.4121C26.4551 69.2363 26.3691 69.0957 26.2559 68.9902C26.1426 68.8848 26.0059 68.8105 25.8457 68.7676C25.6855 68.7207 25.502 68.6973 25.2949 68.6973C25.123 68.6973 24.9629 68.7207 24.8145 68.7676C24.666 68.8105 24.5312 68.873 24.4102 68.9551C24.3164 69.0176 24.2285 69.0938 24.1465 69.1836C24.0645 69.2734 23.9922 69.3711 23.9297 69.4766V74H22.5293ZM32.5488 66.1133V67.6602H34.9336V68.709H32.5488V71.7383C32.5488 71.9727 32.5762 72.1699 32.6309 72.3301C32.6895 72.4863 32.7695 72.6094 32.8711 72.6992C32.9727 72.793 33.0938 72.8594 33.2344 72.8984C33.375 72.9375 33.5293 72.957 33.6973 72.957C33.8184 72.957 33.9434 72.9512 34.0723 72.9395C34.2012 72.9277 34.3262 72.9121 34.4473 72.8926C34.5645 72.877 34.6738 72.8594 34.7754 72.8398C34.8809 72.8164 34.9688 72.7969 35.0391 72.7812L35.1914 73.748C35.0898 73.8105 34.9668 73.8652 34.8223 73.9121C34.6816 73.9551 34.5293 73.9922 34.3652 74.0234C34.2012 74.0547 34.0293 74.0781 33.8496 74.0938C33.6738 74.1133 33.498 74.123 33.3223 74.123C33.002 74.123 32.707 74.0801 32.4375 73.9941C32.1719 73.9043 31.9434 73.7656 31.752 73.5781C31.5605 73.3945 31.4102 73.1582 31.3008 72.8691C31.1953 72.5801 31.1426 72.2324 31.1426 71.8262V68.709H29.6074V67.6602H31.1426V66.1133H32.5488ZM39.9023 74.1172C39.4336 74.1172 39.0039 74.0391 38.6133 73.8828C38.2266 73.7266 37.8945 73.5098 37.6172 73.2324C37.3398 72.959 37.125 72.6367 36.9727 72.2656C36.8242 71.8906 36.75 71.4863 36.75 71.0527V70.8125C36.75 70.3164 36.8281 69.8672 36.9844 69.4648C37.1406 69.0625 37.3555 68.7188 37.6289 68.4336C37.9023 68.1484 38.2188 67.9297 38.5781 67.7773C38.9414 67.6211 39.3281 67.543 39.7383 67.543C40.1953 67.543 40.5996 67.6211 40.9512 67.7773C41.3027 67.9297 41.5977 68.1426 41.8359 68.416C42.0742 68.6934 42.2539 69.0234 42.375 69.4062C42.4961 69.7891 42.5566 70.207 42.5566 70.6602V71.2637H38.1621V71.293C38.2051 71.5703 38.2715 71.8027 38.3613 71.9902C38.4512 72.1777 38.5742 72.3457 38.7305 72.4941C38.8867 72.6504 39.0703 72.7715 39.2812 72.8574C39.4961 72.9434 39.7305 72.9863 39.9844 72.9863C40.332 72.9863 40.6562 72.9199 40.957 72.7871C41.2578 72.6504 41.5059 72.457 41.7012 72.207L42.4512 72.9336C42.2402 73.2383 41.916 73.5117 41.4785 73.7539C41.0449 73.9961 40.5195 74.1172 39.9023 74.1172ZM39.7324 68.6797C39.5332 68.6797 39.3477 68.7168 39.1758 68.791C39.0078 68.8613 38.8574 68.9629 38.7246 69.0957C38.5918 69.2324 38.4805 69.3965 38.3906 69.5879C38.3008 69.7793 38.2344 69.9961 38.1914 70.2383H41.1738V70.1445C41.1738 69.9609 41.1406 69.7793 41.0742 69.5996C41.0078 69.416 40.9141 69.2559 40.793 69.1191C40.6758 68.9863 40.5273 68.8809 40.3477 68.8027C40.1719 68.7207 39.9668 68.6797 39.7324 68.6797ZM44.1504 74V67.6602H45.416L45.5039 68.5625C45.5898 68.4414 45.6836 68.3301 45.7852 68.2285C45.8906 68.123 46.002 68.0293 46.1191 67.9473C46.3066 67.8184 46.5117 67.7188 46.7344 67.6484C46.957 67.5781 47.1914 67.543 47.4375 67.543C47.7617 67.543 48.0586 67.5898 48.3281 67.6836C48.5977 67.7773 48.8281 67.9258 49.0195 68.1289C49.2109 68.332 49.3594 68.5918 49.4648 68.9082C49.5703 69.2207 49.623 69.5996 49.623 70.0449V74H48.2227V70.0684C48.2227 69.8066 48.1934 69.5879 48.1348 69.4121C48.0762 69.2363 47.9902 69.0957 47.877 68.9902C47.7637 68.8848 47.627 68.8105 47.4668 68.7676C47.3066 68.7207 47.123 68.6973 46.916 68.6973C46.7441 68.6973 46.584 68.7207 46.4355 68.7676C46.2871 68.8105 46.1523 68.873 46.0312 68.9551C45.9375 69.0176 45.8496 69.0938 45.7676 69.1836C45.6855 69.2734 45.6133 69.3711 45.5508 69.4766V74H44.1504ZM51.1699 70.7832C51.1699 70.3027 51.2266 69.8652 51.3398 69.4707C51.457 69.0723 51.625 68.7305 51.8438 68.4453C52.0586 68.1602 52.3203 67.9395 52.6289 67.7832C52.9414 67.623 53.293 67.543 53.6836 67.543C54.0352 67.543 54.3418 67.6055 54.6035 67.7305C54.8691 67.8516 55.1035 68.0254 55.3066 68.252V65H56.707V74H55.4355L55.3711 73.3379C55.168 73.5879 54.9258 73.7812 54.6445 73.918C54.3633 74.0508 54.0391 74.1172 53.6719 74.1172C53.2852 74.1172 52.9375 74.0371 52.6289 73.877C52.3203 73.7129 52.0586 73.4863 51.8438 73.1973C51.6289 72.9121 51.4629 72.5742 51.3457 72.1836C51.2285 71.7891 51.1699 71.3633 51.1699 70.9062V70.7832ZM52.5703 70.9062C52.5703 71.1875 52.5977 71.4531 52.6523 71.7031C52.707 71.9531 52.793 72.1699 52.9102 72.3535C53.0273 72.5449 53.1777 72.6953 53.3613 72.8047C53.5449 72.9102 53.7656 72.9629 54.0234 72.9629C54.3398 72.9629 54.6016 72.8945 54.8086 72.7578C55.0156 72.6172 55.1816 72.4277 55.3066 72.1895V69.4648C55.1816 69.2305 55.0156 69.0449 54.8086 68.9082C54.6055 68.7676 54.3477 68.6973 54.0352 68.6973C53.7734 68.6973 53.5488 68.752 53.3613 68.8613C53.1777 68.9707 53.0293 69.1211 52.916 69.3125C52.7949 69.5039 52.707 69.7266 52.6523 69.9805C52.5977 70.2305 52.5703 70.498 52.5703 70.7832V70.9062ZM65.584 70.7832C65.584 70.3027 65.6406 69.8652 65.7539 69.4707C65.8711 69.0723 66.0391 68.7305 66.2578 68.4453C66.4727 68.1602 66.7344 67.9395 67.043 67.7832C67.3555 67.623 67.707 67.543 68.0977 67.543C68.4492 67.543 68.7559 67.6055 69.0176 67.7305C69.2832 67.8516 69.5176 68.0254 69.7207 68.252V65H71.1211V74H69.8496L69.7852 73.3379C69.582 73.5879 69.3398 73.7812 69.0586 73.918C68.7773 74.0508 68.4531 74.1172 68.0859 74.1172C67.6992 74.1172 67.3516 74.0371 67.043 73.877C66.7344 73.7129 66.4727 73.4863 66.2578 73.1973C66.043 72.9121 65.877 72.5742 65.7598 72.1836C65.6426 71.7891 65.584 71.3633 65.584 70.9062V70.7832ZM66.9844 70.9062C66.9844 71.1875 67.0117 71.4531 67.0664 71.7031C67.1211 71.9531 67.207 72.1699 67.3242 72.3535C67.4414 72.5449 67.5918 72.6953 67.7754 72.8047C67.959 72.9102 68.1797 72.9629 68.4375 72.9629C68.7539 72.9629 69.0156 72.8945 69.2227 72.7578C69.4297 72.6172 69.5957 72.4277 69.7207 72.1895V69.4648C69.5957 69.2305 69.4297 69.0449 69.2227 68.9082C69.0195 68.7676 68.7617 68.6973 68.4492 68.6973C68.1875 68.6973 67.9629 68.752 67.7754 68.8613C67.5918 68.9707 67.4434 69.1211 67.3301 69.3125C67.209 69.5039 67.1211 69.7266 67.0664 69.9805C67.0117 70.2305 66.9844 70.498 66.9844 70.7832V70.9062ZM75.9375 74.1172C75.4688 74.1172 75.0391 74.0391 74.6484 73.8828C74.2617 73.7266 73.9297 73.5098 73.6523 73.2324C73.375 72.959 73.1602 72.6367 73.0078 72.2656C72.8594 71.8906 72.7852 71.4863 72.7852 71.0527V70.8125C72.7852 70.3164 72.8633 69.8672 73.0195 69.4648C73.1758 69.0625 73.3906 68.7188 73.6641 68.4336C73.9375 68.1484 74.2539 67.9297 74.6133 67.7773C74.9766 67.6211 75.3633 67.543 75.7734 67.543C76.2305 67.543 76.6348 67.6211 76.9863 67.7773C77.3379 67.9297 77.6328 68.1426 77.8711 68.416C78.1094 68.6934 78.2891 69.0234 78.4102 69.4062C78.5312 69.7891 78.5918 70.207 78.5918 70.6602V71.2637H74.1973V71.293C74.2402 71.5703 74.3066 71.8027 74.3965 71.9902C74.4863 72.1777 74.6094 72.3457 74.7656 72.4941C74.9219 72.6504 75.1055 72.7715 75.3164 72.8574C75.5312 72.9434 75.7656 72.9863 76.0195 72.9863C76.3672 72.9863 76.6914 72.9199 76.9922 72.7871C77.293 72.6504 77.541 72.457 77.7363 72.207L78.4863 72.9336C78.2754 73.2383 77.9512 73.5117 77.5137 73.7539C77.0801 73.9961 76.5547 74.1172 75.9375 74.1172ZM75.7676 68.6797C75.5684 68.6797 75.3828 68.7168 75.2109 68.791C75.043 68.8613 74.8926 68.9629 74.7598 69.0957C74.627 69.2324 74.5156 69.3965 74.4258 69.5879C74.3359 69.7793 74.2695 69.9961 74.2266 70.2383H77.209V70.1445C77.209 69.9609 77.1758 69.7793 77.1094 69.5996C77.043 69.416 76.9492 69.2559 76.8281 69.1191C76.7109 68.9863 76.5625 68.8809 76.3828 68.8027C76.207 68.7207 76.002 68.6797 75.7676 68.6797ZM82.2598 74L79.7637 67.6602H81.2168L82.7871 72.2598L82.8809 72.6816L82.9746 72.2598L84.5273 67.6602H85.9805L83.4961 74H82.2598ZM90.3516 74.1172C89.8828 74.1172 89.4531 74.0391 89.0625 73.8828C88.6758 73.7266 88.3438 73.5098 88.0664 73.2324C87.7891 72.959 87.5742 72.6367 87.4219 72.2656C87.2734 71.8906 87.1992 71.4863 87.1992 71.0527V70.8125C87.1992 70.3164 87.2773 69.8672 87.4336 69.4648C87.5898 69.0625 87.8047 68.7188 88.0781 68.4336C88.3516 68.1484 88.668 67.9297 89.0273 67.7773C89.3906 67.6211 89.7773 67.543 90.1875 67.543C90.6445 67.543 91.0488 67.6211 91.4004 67.7773C91.752 67.9297 92.0469 68.1426 92.2852 68.416C92.5234 68.6934 92.7031 69.0234 92.8242 69.4062C92.9453 69.7891 93.0059 70.207 93.0059 70.6602V71.2637H88.6113V71.293C88.6543 71.5703 88.7207 71.8027 88.8105 71.9902C88.9004 72.1777 89.0234 72.3457 89.1797 72.4941C89.3359 72.6504 89.5195 72.7715 89.7305 72.8574C89.9453 72.9434 90.1797 72.9863 90.4336 72.9863C90.7812 72.9863 91.1055 72.9199 91.4062 72.7871C91.707 72.6504 91.9551 72.457 92.1504 72.207L92.9004 72.9336C92.6895 73.2383 92.3652 73.5117 91.9277 73.7539C91.4941 73.9961 90.9688 74.1172 90.3516 74.1172ZM90.1816 68.6797C89.9824 68.6797 89.7969 68.7168 89.625 68.791C89.457 68.8613 89.3066 68.9629 89.1738 69.0957C89.041 69.2324 88.9297 69.3965 88.8398 69.5879C88.75 69.7793 88.6836 69.9961 88.6406 70.2383H91.623V70.1445C91.623 69.9609 91.5898 69.7793 91.5234 69.5996C91.457 69.416 91.3633 69.2559 91.2422 69.1191C91.125 68.9863 90.9766 68.8809 90.7969 68.8027C90.6211 68.7207 90.416 68.6797 90.1816 68.6797ZM94.8691 65H98.2852V72.8398H100.207V74H94.8691V72.8398H96.873V66.166H94.8691V65ZM101.549 70.7715C101.549 70.3105 101.615 69.8848 101.748 69.4941C101.881 69.0996 102.074 68.7578 102.328 68.4688C102.578 68.1797 102.885 67.9531 103.248 67.7891C103.611 67.625 104.025 67.543 104.49 67.543C104.955 67.543 105.369 67.625 105.732 67.7891C106.1 67.9531 106.41 68.1797 106.664 68.4688C106.914 68.7578 107.105 69.0996 107.238 69.4941C107.371 69.8848 107.438 70.3105 107.438 70.7715V70.8945C107.438 71.3594 107.371 71.7871 107.238 72.1777C107.105 72.5684 106.914 72.9082 106.664 73.1973C106.414 73.4863 106.105 73.7129 105.738 73.877C105.375 74.041 104.963 74.123 104.502 74.123C104.037 74.123 103.621 74.041 103.254 73.877C102.887 73.7129 102.578 73.4863 102.328 73.1973C102.074 72.9082 101.881 72.5684 101.748 72.1777C101.615 71.7871 101.549 71.3594 101.549 70.8945V70.7715ZM102.949 70.8945C102.949 71.1797 102.979 71.4492 103.037 71.7031C103.1 71.957 103.195 72.1797 103.324 72.3711C103.449 72.5625 103.609 72.7148 103.805 72.8281C104 72.9375 104.232 72.9922 104.502 72.9922C104.764 72.9922 104.992 72.9375 105.188 72.8281C105.383 72.7148 105.543 72.5625 105.668 72.3711C105.793 72.1797 105.885 71.957 105.943 71.7031C106.006 71.4492 106.037 71.1797 106.037 70.8945V70.7715C106.037 70.4941 106.006 70.2285 105.943 69.9746C105.881 69.7207 105.789 69.498 105.668 69.3066C105.539 69.1152 105.377 68.9629 105.182 68.8496C104.99 68.7363 104.76 68.6797 104.49 68.6797C104.225 68.6797 103.994 68.7363 103.799 68.8496C103.607 68.9629 103.449 69.1152 103.324 69.3066C103.195 69.498 103.1 69.7207 103.037 69.9746C102.979 70.2285 102.949 70.4941 102.949 70.7715V70.8945ZM109.025 76.4375V67.6602H110.314L110.367 68.3105C110.453 68.2051 110.547 68.1094 110.648 68.0234C110.75 67.9375 110.859 67.8633 110.977 67.8008C111.129 67.7188 111.297 67.6562 111.48 67.6133C111.664 67.5664 111.859 67.543 112.066 67.543C112.473 67.543 112.83 67.6211 113.139 67.7773C113.451 67.9336 113.713 68.1543 113.924 68.4395C114.131 68.7246 114.289 69.0664 114.398 69.4648C114.508 69.8594 114.562 70.2949 114.562 70.7715V70.8945C114.562 71.3516 114.508 71.7773 114.398 72.1719C114.293 72.5664 114.135 72.9062 113.924 73.1914C113.713 73.4805 113.453 73.707 113.145 73.8711C112.836 74.0352 112.482 74.1172 112.084 74.1172C111.857 74.1172 111.648 74.0938 111.457 74.0469C111.27 74 111.096 73.9316 110.936 73.8418C110.842 73.7871 110.752 73.7246 110.666 73.6543C110.58 73.584 110.5 73.5078 110.426 73.4258V76.4375H109.025ZM113.162 70.7715C113.162 70.4863 113.133 70.2188 113.074 69.9688C113.02 69.7148 112.934 69.4941 112.816 69.3066C112.695 69.1191 112.541 68.9707 112.354 68.8613C112.166 68.752 111.941 68.6973 111.68 68.6973C111.535 68.6973 111.4 68.7129 111.275 68.7441C111.15 68.7754 111.039 68.8203 110.941 68.8789C110.828 68.9414 110.729 69.0195 110.643 69.1133C110.561 69.207 110.488 69.3125 110.426 69.4297V72.248C110.48 72.3574 110.547 72.457 110.625 72.5469C110.703 72.6367 110.793 72.7148 110.895 72.7812C111 72.8438 111.119 72.8945 111.252 72.9336C111.385 72.9688 111.531 72.9863 111.691 72.9863C111.953 72.9863 112.176 72.9316 112.359 72.8223C112.547 72.709 112.699 72.5566 112.816 72.3652C112.938 72.1699 113.025 71.9473 113.08 71.6973C113.135 71.4434 113.162 71.1758 113.162 70.8945V70.7715ZM119.18 74.1172C118.711 74.1172 118.281 74.0391 117.891 73.8828C117.504 73.7266 117.172 73.5098 116.895 73.2324C116.617 72.959 116.402 72.6367 116.25 72.2656C116.102 71.8906 116.027 71.4863 116.027 71.0527V70.8125C116.027 70.3164 116.105 69.8672 116.262 69.4648C116.418 69.0625 116.633 68.7188 116.906 68.4336C117.18 68.1484 117.496 67.9297 117.855 67.7773C118.219 67.6211 118.605 67.543 119.016 67.543C119.473 67.543 119.877 67.6211 120.229 67.7773C120.58 67.9297 120.875 68.1426 121.113 68.416C121.352 68.6934 121.531 69.0234 121.652 69.4062C121.773 69.7891 121.834 70.207 121.834 70.6602V71.2637H117.439V71.293C117.482 71.5703 117.549 71.8027 117.639 71.9902C117.729 72.1777 117.852 72.3457 118.008 72.4941C118.164 72.6504 118.348 72.7715 118.559 72.8574C118.773 72.9434 119.008 72.9863 119.262 72.9863C119.609 72.9863 119.934 72.9199 120.234 72.7871C120.535 72.6504 120.783 72.457 120.979 72.207L121.729 72.9336C121.518 73.2383 121.193 73.5117 120.756 73.7539C120.322 73.9961 119.797 74.1172 119.18 74.1172ZM119.01 68.6797C118.811 68.6797 118.625 68.7168 118.453 68.791C118.285 68.8613 118.135 68.9629 118.002 69.0957C117.869 69.2324 117.758 69.3965 117.668 69.5879C117.578 69.7793 117.512 69.9961 117.469 70.2383H120.451V70.1445C120.451 69.9609 120.418 69.7793 120.352 69.5996C120.285 69.416 120.191 69.2559 120.07 69.1191C119.953 68.9863 119.805 68.8809 119.625 68.8027C119.449 68.7207 119.244 68.6797 119.01 68.6797ZM127.811 67.543C128.037 67.543 128.256 67.5586 128.467 67.5898C128.682 67.6211 128.85 67.6582 128.971 67.7012L128.771 69.084C128.557 69.0371 128.344 69.002 128.133 68.9785C127.926 68.9551 127.719 68.9434 127.512 68.9434C127.277 68.9434 127.066 68.9668 126.879 69.0137C126.691 69.0605 126.525 69.1328 126.381 69.2305C126.225 69.3242 126.092 69.4434 125.982 69.5879C125.873 69.7324 125.781 69.8984 125.707 70.0859V74H124.307V67.6602H125.619L125.678 68.5391L125.684 68.6855C125.941 68.3301 126.25 68.0508 126.609 67.8477C126.973 67.6445 127.373 67.543 127.811 67.543Z" fill="#E15544"/>
</svg>
